<svg width="26" height="26" xmlns="http://www.w3.org/2000/svg"><g fill="none" fill-rule="evenodd"><path d="M24.565 0H1.445C.646 0 0 .647 0 1.444v23.13C.01 25.364.654 26 1.444 26h12.459V15.945h-3.391V12.01h3.376V9.12c0-3.358 2.051-5.187 5.056-5.187a28.123 28.123 0 013.028.154v3.495h-2.075c-1.625 0-1.946.775-1.946 1.91v2.518h3.896l-.505 3.934H17.95V26h6.614A1.444 1.444 0 0026 24.565V1.445C26 .65 25.359.004 24.565 0z" fill="#4267B2"/><path d="M17.95 26V15.945h3.392l.505-3.934h-3.896V9.503c0-1.136.316-1.91 1.946-1.91h2.066V4.08a28.123 28.123 0 00-3.028-.154c-2.996 0-5.047 1.83-5.047 5.187v2.89h-3.376v3.94h3.376V26h4.063z" fill="#FFF"/></g></svg>