<svg width="28" height="28" xmlns="http://www.w3.org/2000/svg"><g fill="none" fill-rule="evenodd"><rect x="-.5" y="-.5" width="27" height="27" rx="2" fill="#FFF" stroke="#E7E7E7" transform="translate(1 1)"/><path d="M20.582 14.49a7.46 7.46 0 00-.118-1.33h-6.122v2.515h3.498a2.99 2.99 0 01-1.297 1.961v1.631h2.1c1.23-1.131 1.94-2.798 1.94-4.777z" fill="#4285F4"/><path d="M14.342 20.842c1.755 0 3.226-.582 4.302-1.575l-2.1-1.63c-.583.39-1.327.62-2.202.62-1.693 0-3.126-1.144-3.637-2.68H8.533v1.684a6.498 6.498 0 005.81 3.581z" fill="#34A853"/><path d="M10.705 15.577a3.907 3.907 0 01-.204-1.235c0-.428.074-.845.204-1.235v-1.684H8.533a6.497 6.497 0 000 5.838l2.172-1.684z" fill="#FBBC05"/><path d="M14.342 10.427c.954 0 1.811.328 2.485.972l1.864-1.864c-1.125-1.049-2.597-1.693-4.349-1.693a6.498 6.498 0 00-5.809 3.581l2.172 1.684c.511-1.536 1.944-2.68 3.637-2.68z" fill="#EA4335"/><path d="M7.842 7.842h13v13h-13z"/></g></svg>