<svg width="160" height="40" xmlns="http://www.w3.org/2000/svg" xmlns:xlink="http://www.w3.org/1999/xlink"><defs><path id="a" d="M0 .13h73.794v35.853H0z"/></defs><g fill="none" fill-rule="evenodd"><g transform="translate(0 2)"><mask id="b" fill="#fff"><use xlink:href="#a"/></mask><path d="M55.382 18.467c-.345-.352-.667-.67-1.095-.926-.723-.435-1.536-.726-2.359-.912-.137-.032-.306-.053-.42-.14-.15-.108-.029-.3.135-.327.555-.096 1.14.087 1.649.292.745.3 1.439.74 1.94 1.38.11.14.352.409.35.608 0 .22-.1.127-.2.025zm-.61.313c-.536-.16-1.082-.197-1.626-.254a7.8 7.8 0 00-1.35-.018 3.353 3.353 0 00-.482.058c-.156.034-.33.091-.493.051-.181-.041-.104-.204-.008-.28.094-.08.208-.134.318-.186.335-.155.71-.201 1.074-.228.892-.072 1.795.19 2.578.616.108.057.324.18.367.296.002.005.002.009.006.014.018.118-.342-.054-.385-.069zm-.144.707c-.169.024-.34.04-.508.075-.67.143-1.352.23-1.978.518-.092.042-.581.304-.608.084-.007-.057.069-.141.099-.181.22-.265.661-.399.976-.5.501-.16 1.039-.207 1.564-.206.168.001.335.01.502.024.025.003.168 0 .185.024.112.15-.14.15-.232.162zm19.152 11.98c.151-.725-1.012-1.083-1.5-1.075-.94.014-1.543.093-2.34.588-1.945 1.204-5.361.083-7.117-1.062-4.033-2.632-1.894-9.557-1.96-13.453-.095-5.764-4.605-9.55-10.09-9.847-1.001-.053-2.68.083-3.117 1.253-.254.68.386 1.358.712 1.894.544.898.896 1.845 1.192 2.852-1.823-1.897-2.856-4.37-4.43-6.455-1.488-1.972-3.235-3.849-5.437-5.008-2.695-1.413-7.223-1.893-7.951 2.108-.441 2.427 1.68 4.255 2.96 6.017.438.596.844 1.22 1.2 1.868.589 1.07.923 2.234 1.4 3.35.403.943.963 1.799 1.896 2.27.775.391 1.65.522 2.487.726 1.029.25 1.732.716 2.428 1.514-.836-.664-2.024-.649-3.031-.799-1.272-.19-2.578-.753-3.518-1.644-1.066-1.008-1.739-2.352-2.296-3.692-.69-1.661-1.375-3.8-2.945-4.835-1.96-1.293-4.73-1.146-6.93-.687a13.99 13.99 0 00-2.324.722 15.89 15.89 0 00-2.22 1.087c-.608.356-1.166.878-1.859 1.06-.697.185-1.396-.065-2.071-.226-.62-.147-1.254-.242-1.883-.353-.66-.115-1.323-.09-1.986-.186-1.078-.16-2.104-.009-3.166.184-.999.18-1.98.46-2.91.88-.346.154-.674.346-1.017.513-.236.116-.473.187-.73.09-.623-.237-.826-.869-1.103-1.417-.226-.448-.715-1.01-1.145-1.272-.101-.062-.15-.13-.238-.202-.037-.03-.1-.04-.149-.063.11.091.22.29.271.389.174.347.447.658.579 1.026-.194.037-.456-.197-.613-.299-.627-.41-1.591-.377-2.31-.383.27.032.582.208.787.318.298.154.536.378.778.606.087.083.214.206.258.314-.098.043-.25.005-.357.02a5.069 5.069 0 00-.826.207 4.546 4.546 0 00-.651.262c-.054.026-.162.019-.148.106.194.04.4 0 .597.023.216.027.424.03.64.04.065.005.265.013.272.11.013.113-.217.272-.287.327-.364.295-.8.533-1.128.87-.135.14-.462.49-.454.701.342.071.716-.067 1.042-.145.142-.032.29-.08.434-.108.058-.012.126 0 .177-.04-.021.213-.153.435-.235.63-.052.13-.117.254-.193.37-.07.127-.103.265-.17.392-.08.149-.193.264-.263.424-.032.068-.097.15-.114.22.094.027.353-.213.423-.263.265-.183.479-.412.71-.634.17-.165.346-.358.527-.508.116-.095.184-.096.166.089-.028.296-.157.618-.25.9-.105.307-.205.611-.287.927-.059.227-.139.446-.16.682-.011.12-.086.265-.047.386.123.028.332-.191.413-.265.252-.224.463-.58.608-.877.127-.252.252-.507.375-.76.06-.126.142-.334.259-.415.074.498.124 1.004.187 1.503.032.255.047.511.08.763.02.156-.025.339.018.49.154.068.344-.224.415-.323.168-.24.259-.557.34-.835.08-.297.154-.61.2-.914.01-.052-.033-.444.02-.478.072-.045.194.108.244.152.186.163.34.383.44.613.111.253.176.543.239.81.03.12.019.249.048.362.282-.23.232-.748.273-1.07.041-.32.107-.683-.029-.981-.065-.148-.119-.307-.185-.45-.056-.115-.151-.243-.178-.364a.89.89 0 01.23-.806c.104-.103.2-.151.324-.216.286-.15.512-.358.813-.49a5.49 5.49 0 01.917-.29c.544-.132 1.102-.2 1.654-.293.016-.003.029-.005.043-.009 2.383-.42 4.962.26 5.658 2.869.485 1.819.392 3.89.487 5.762.152 2.908.271 5.82.496 8.728.14 1.76-.071 4.315 1.548 5.493 2.006 1.457 5.356.929 7.67.832 1.584-.066 3.082-.629 3.76-2.166.6-1.358.418-2.92.387-4.363-.054-2.513 0-5.033-.143-7.54-.036-.636-.006-1.403.361-1.945.79-1.174 1.612.266 1.866 1.007.725 2.124.887 4.383 1.052 6.607.049.66.097 1.317.162 1.973.082.811.197 1.619.39 2.413.142.581.33 1.15.587 1.688.446.942 1.115 1.727 2.085 2.146 1.354.59 2.902.644 4.357.671 1.914.036 4.885.299 5.89-1.82.56-1.18.48-2.534.497-3.807.016-1.324-.062-2.646-.112-3.968-.045-1.245-.168-2.616.102-3.842.156-.717 1.027-1.646 1.546-.717.372.669.403 1.492.451 2.237.052.768.071 1.531.204 2.293.163.944.417 1.87.756 2.764.653 1.73 1.67 3.356 3.092 4.545.83.694 1.844 1.232 2.86 1.583 1.101.378 2.305.61 3.465.7 1.952.152 3.91-.123 5.854-.263 1.354-.096 3.375-.335 4.683.066.698.214 1.3.782 1.96.98a1.931 1.931 0 002.026-.643c.574-.73.023-1.325-.218-2.044-.068-.208-.181-.414-.196-.656a.838.838 0 01.022-.253c.1-.415.583-.444.667-.846z" fill="#DA286A" fill-rule="nonzero" mask="url(#b)"/></g><path d="M74.532 17.606c-.43.645-1.31 1.055-3.829 2.286-1.758.84-3.887 1.992-3.887 5.078 0 2.403 1.367 3.517 3.203 3.517 1.602 0 3.165-.84 4.513-3.028v-7.853zm2.012-7.442c1.27 1.289 1.601 2.773 1.601 5.606v11.115c0 1.289.313 1.895 1.231 1.895.723 0 1.25-.372 1.797-.84l.45.683c-1.114.84-1.954 1.465-3.653 1.465-2.794 0-3.438-1.68-3.438-3.555-1.72 2.832-4.24 3.555-6.154 3.555-2.676 0-5.078-1.348-5.078-4.473 0-3.164 2.441-4.57 6.446-6.25 2.676-1.114 4.786-1.798 4.786-3.4v-2.48c0-3.36-1.641-4.025-3.712-4.025-1.367 0-3.047.274-3.965 1.426a2.469 2.469 0 011.875 2.442c0 1.368-.918 2.168-2.344 2.168-1.367 0-2.168-1.035-2.168-2.48 0-1.172.762-2.09 1.875-2.852 1.133-.743 3.047-1.504 5.606-1.504 2.247 0 3.927.586 4.845 1.504zm37.415 15.939c0 2.227.84 2.872 3.047 2.872v.84c-.918-.04-3.047-.157-4.805-.157-1.758 0-3.634.118-4.474.157v-.84c1.915 0 2.638-.645 2.638-2.872V14.54c0-2.48-.157-4.61-3.048-4.61-3.106 0-5.391 3.165-5.391 7.247v8.927c0 2.227.84 2.872 3.028 2.872v.84c-.918-.04-3.028-.157-4.786-.157-1.758 0-3.653.118-4.493.157v-.84c1.934 0 2.637-.645 2.637-2.872V14.54c0-2.48-.156-4.61-3.028-4.61-3.125 0-5.41 3.204-5.41 7.286v8.888c0 2.227.722 2.872 2.656 2.872v.84c-.84-.04-2.735-.157-4.493-.157-1.758 0-3.887.118-4.805.157v-.84c2.207 0 3.047-.645 3.047-2.872v-12.52c0-2.404-.723-3.537-3.047-3.537v-.84c.84.079 1.68.118 2.48.118 1.563 0 3.009-.157 4.161-.547v4.707c1.368-3.477 4.005-4.824 6.564-4.824 1.875 0 3.243.546 4.16 1.504.704.762 1.075 1.797 1.231 3.223 1.426-3.633 4.122-4.727 6.661-4.727 1.876 0 3.243.546 4.161 1.504.996 1.094 1.309 2.734 1.309 5.254v10.685m15.471-15.979c.273.214.507.332.703.332.468 0 .761-.567.898-1.758h.918c-.117 1.465-.156 3.36-.156 6.797h-.918c-.488-2.969-1.836-6.075-5.45-6.075-1.875 0-3.282 1.075-3.282 3.067 0 2.403 2.403 3.516 5.138 5.294 3.027 1.953 5.47 3.711 5.47 6.993 0 3.672-3.204 5.606-6.838 5.606-1.152 0-2.207-.175-3.164-.566a8.46 8.46 0 01-1.64-1.075.518.518 0 00-.372-.156c-.352 0-.664.508-.82 1.504h-.919c.118-1.719.157-3.946.157-7.99h.918c.527 4.474 1.562 7.482 5.567 7.482 1.602 0 3.555-.957 3.555-3.809 0-2.324-1.914-3.594-4.532-5.235-2.91-1.836-5.508-3.399-5.508-6.72 0-3.555 2.754-5.156 5.918-5.156 2.11 0 3.634.879 4.356 1.465M153.66 8.67v.8c-.997.118-1.838.763-2.6 2.814l-6.562 17.19-1.368 3.477c-.527 1.367-1.074 2.246-1.719 2.812-.879.801-2.168 1.036-3.125 1.036-1.524 0-2.716-.84-2.716-2.403 0-1.27.801-2.11 2.13-2.11 1.113 0 2.031.626 2.031 1.876 0 .918-.527 1.484-1.074 1.797a.495.495 0 00.234.039c1.446 0 2.56-.918 3.399-3.126l1.426-3.652-7.266-17.464c-1.036-2.09-2.071-2.246-2.716-2.246v-.84c1.153.156 2.403.254 3.926.254 1.622 0 3.595-.137 5.197-.254v.84c-1.505 0-2.794 0-2.794 1.387 0 .469.156 1.113.508 1.973l4.825 11.954 4.415-11.583c.273-.742.43-1.348.43-1.836 0-1.27-.958-1.797-2.989-1.934V8.67c1.407.078 2.129.117 3.36.117 1.25 0 2.206-.039 3.047-.117" fill="#DA2A6A" fill-rule="nonzero"/><path d="M160 7.394a2.712 2.712 0 11-2.695-2.682A2.682 2.682 0 01160 7.394zm-4.866 0a2.145 2.145 0 002.171 2.218 2.12 2.12 0 002.116-2.205 2.145 2.145 0 10-4.291 0l.004-.013zm1.66 1.489h-.489v-2.82c.306-.06.616-.088.927-.085.315-.03.63.05.893.227.185.14.29.36.283.592a.73.73 0 01-.558.648v.035c.262.09.386.313.472.682.03.244.102.482.21.703h-.506a1.785 1.785 0 01-.227-.738c-.069-.313-.262-.454-.665-.454h-.34v1.21zm0-1.597h.352c.382 0 .734-.107.734-.429 0-.321-.176-.476-.682-.476-.135-.002-.27.01-.403.034v.871z" fill="#DA286A" fill-rule="nonzero"/></g></svg>