<svg width="26" height="26" xmlns="http://www.w3.org/2000/svg" xmlns:xlink="http://www.w3.org/1999/xlink"><defs><path id="a" d="M.124.052h25.808v25.94H.124z"/></defs><g fill="none" fill-rule="evenodd"><mask id="b" fill="#fff"><use xlink:href="#a"/></mask><path d="M25.932 24.486c0 .833-.677 1.514-1.506 1.514H1.63a1.515 1.515 0 01-1.506-1.514V1.566C.124.733.802.052 1.63.052h22.796c.829 0 1.506.681 1.506 1.514v22.92" fill="#E9852C" mask="url(#b)"/><path d="M13.028 6.993c1.014 0 1.839.83 1.839 1.849a1.846 1.846 0 01-1.839 1.847 1.846 1.846 0 01-1.838-1.847c0-1.02.825-1.849 1.838-1.849zm0 6.312c2.45 0 4.44-2.002 4.44-4.463 0-2.463-1.99-4.465-4.44-4.465-2.449 0-4.44 2.002-4.44 4.465 0 2.461 1.991 4.463 4.44 4.463zm1.796 3.642a8.284 8.284 0 002.58-1.074c.607-.385.79-1.193.407-1.804a1.296 1.296 0 00-1.794-.411 5.612 5.612 0 01-5.978 0 1.296 1.296 0 00-1.794.411c-.383.612-.2 1.419.408 1.804a8.295 8.295 0 002.578 1.074l-2.482 2.496a1.313 1.313 0 000 1.85 1.294 1.294 0 001.84 0l2.439-2.454 2.44 2.453c.507.51 1.331.51 1.839 0a1.311 1.311 0 000-1.85l-2.483-2.495" fill="#FFFFFE"/></g></svg>