<svg width="26" height="26" xmlns="http://www.w3.org/2000/svg"><g fill="none" fill-rule="evenodd"><path d="M9.09.16H17c7.218 0 8.927 1.666 8.927 8.704v7.711c0 7.038-1.709 8.704-8.927 8.704H9.09c-7.217 0-8.926-1.666-8.926-8.704V8.864C.164 1.826 1.873.16 9.09.16" fill="#4680C2"/><path d="M21.255 8.81c.127-.39 0-.673-.564-.673h-1.873c-.473 0-.69.248-.818.514 0 0-.964 2.269-2.31 3.74-.435.426-.635.568-.872.568-.127 0-.29-.142-.29-.532V8.793c0-.461-.146-.674-.546-.674h-2.946c-.29 0-.472.213-.472.426 0 .443.672.55.745 1.79v2.695c0 .585-.109.69-.345.69-.637 0-2.182-2.286-3.11-4.892-.181-.514-.363-.709-.836-.709h-1.89c-.546 0-.637.248-.637.514 0 .479.636 2.89 2.964 6.08C9 16.895 11.2 18.065 13.182 18.065c1.2 0 1.345-.266 1.345-.709v-1.649c0-.531.11-.62.491-.62.273 0 .764.142 1.873 1.188 1.273 1.24 1.49 1.808 2.2 1.808h1.873c.545 0 .8-.266.654-.78-.163-.514-.782-1.259-1.582-2.145-.436-.497-1.09-1.046-1.29-1.312-.273-.355-.2-.496 0-.815-.019 0 2.272-3.156 2.509-4.22" fill="#FFF"/></g></svg>